<?xml version="1.0" standalone="no"?><!DOCTYPE svg PUBLIC "-//W3C//DTD SVG 1.1//EN" "http://www.w3.org/Graphics/SVG/1.1/DTD/svg11.dtd"><svg class="icon" width="200px" height="200.00px" viewBox="0 0 1024 1024" version="1.1" xmlns="http://www.w3.org/2000/svg"><path d="M544.448 39.36v646.976c0 76.032-63.104 137.664-140.8 137.664-77.824 0-140.864-61.632-140.864-137.6 0-76.096 63.04-137.664 140.8-137.664 14.72 0 28.928 2.176 42.24 6.272V391.04a314.816 314.816 0 0 0-42.24-2.88c-168.512 0-305.088 133.568-305.088 298.24 0 164.736 136.576 298.24 305.088 298.24 168.512 0 305.088-133.504 305.088-298.24V352.512a398.592 398.592 0 0 0 229.504 72.32h0.512v-160.64c-126.976 0-229.952-100.672-229.952-224.832H544.448z" fill="#000000" /></svg>