<svg xmlns="http://www.w3.org/2000/svg" viewBox="0 0 2612 615" role="img" aria-labelledby="title desc">
  <title id="title">KWA Header Logo</title>
  <desc id="desc">KWA Art Center wordmark</desc>
  <path fill="#000" fill-rule="evenodd" d="M 557 493 L 556 494 L 556 523 L 634 523 L 634 493 Z M 774 466 L 775 465 L 776 466 L 776 467 L 777 468 L 777 470 L 778 471 L 778 473 L 779 474 L 779 475 L 780 476 L 780 478 L 782 480 L 782 482 L 783 483 L 783 484 L 784 485 L 784 487 L 785 488 L 785 490 L 786 491 L 786 493 L 787 494 L 787 496 L 789 498 L 789 499 L 790 500 L 790 502 L 791 503 L 791 505 L 792 506 L 792 507 L 793 508 L 793 510 L 794 511 L 794 513 L 795 514 L 795 515 L 796 516 L 796 518 L 797 519 L 797 520 L 798 521 L 798 522 L 799 523 L 799 525 L 798 526 L 797 526 L 796 525 L 795 526 L 752 526 L 751 525 L 752 524 L 752 523 L 753 522 L 753 520 L 754 519 L 754 517 L 755 516 L 755 514 L 757 512 L 757 511 L 758 510 L 758 508 L 759 507 L 759 505 L 760 504 L 760 502 L 761 501 L 761 499 L 762 498 L 762 496 L 763 495 L 763 494 L 764 493 L 764 492 L 765 491 L 765 490 L 766 489 L 766 487 L 767 486 L 767 484 L 768 483 L 768 482 L 769 481 L 769 479 L 770 478 L 770 476 L 771 475 L 771 474 L 772 473 L 772 471 L 774 469 Z M 2468 425 L 2469 424 L 2518 424 L 2519 425 L 2524 425 L 2525 426 L 2528 426 L 2529 427 L 2531 427 L 2532 428 L 2534 428 L 2535 429 L 2536 429 L 2538 431 L 2539 431 L 2541 433 L 2542 433 L 2548 439 L 2548 440 L 2549 441 L 2549 442 L 2550 443 L 2550 444 L 2552 446 L 2552 448 L 2553 449 L 2553 455 L 2554 456 L 2554 461 L 2553 462 L 2553 468 L 2552 469 L 2552 471 L 2550 473 L 2550 474 L 2549 475 L 2549 476 L 2548 477 L 2548 478 L 2542 484 L 2541 484 L 2538 487 L 2537 487 L 2536 488 L 2534 488 L 2533 489 L 2532 489 L 2531 490 L 2529 490 L 2528 491 L 2524 491 L 2523 492 L 2518 492 L 2517 493 L 2511 493 L 2510 494 L 2509 494 L 2508 493 L 2507 494 L 2506 494 L 2505 493 L 2504 494 L 2469 494 L 2468 493 Z M 965 425 L 966 424 L 1015 424 L 1016 425 L 1021 425 L 1022 426 L 1025 426 L 1026 427 L 1029 427 L 1030 428 L 1031 428 L 1032 429 L 1033 429 L 1035 431 L 1036 431 L 1037 432 L 1038 432 L 1045 439 L 1045 440 L 1048 443 L 1048 444 L 1049 445 L 1049 448 L 1050 449 L 1050 453 L 1051 454 L 1051 463 L 1050 464 L 1050 469 L 1049 470 L 1049 472 L 1048 473 L 1048 474 L 1046 476 L 1046 477 L 1039 484 L 1038 484 L 1035 487 L 1034 487 L 1033 488 L 1032 488 L 1031 489 L 1029 489 L 1028 490 L 1026 490 L 1025 491 L 1021 491 L 1020 492 L 1016 492 L 1015 493 L 1009 493 L 1008 494 L 1007 493 L 1006 494 L 966 494 L 965 493 Z M 2448 404 L 2447 405 L 2447 607 L 2448 607 L 2449 608 L 2450 607 L 2468 607 L 2468 514 L 2469 513 L 2502 513 L 2503 514 L 2503 515 L 2504 516 L 2504 517 L 2506 519 L 2506 520 L 2507 521 L 2507 522 L 2508 523 L 2508 524 L 2509 525 L 2509 526 L 2511 528 L 2511 529 L 2513 531 L 2513 532 L 2514 533 L 2514 534 L 2515 535 L 2515 536 L 2516 537 L 2516 538 L 2518 540 L 2518 541 L 2520 543 L 2520 544 L 2521 545 L 2521 546 L 2523 548 L 2523 549 L 2524 550 L 2524 551 L 2525 552 L 2525 553 L 2527 555 L 2527 556 L 2529 558 L 2529 559 L 2530 560 L 2530 561 L 2531 562 L 2531 563 L 2532 564 L 2532 565 L 2533 566 L 2533 567 L 2536 570 L 2536 571 L 2537 572 L 2537 573 L 2538 574 L 2538 575 L 2539 576 L 2539 577 L 2541 579 L 2541 580 L 2542 581 L 2542 582 L 2544 584 L 2544 585 L 2546 587 L 2546 588 L 2547 589 L 2547 590 L 2548 591 L 2548 592 L 2549 593 L 2549 594 L 2552 597 L 2552 598 L 2553 599 L 2553 600 L 2554 601 L 2554 602 L 2555 603 L 2555 604 L 2557 606 L 2557 607 L 2582 607 L 2582 605 L 2581 604 L 2581 603 L 2579 601 L 2579 600 L 2578 599 L 2578 598 L 2577 597 L 2577 596 L 2574 593 L 2574 592 L 2573 591 L 2573 590 L 2572 589 L 2572 588 L 2570 586 L 2570 585 L 2569 584 L 2569 583 L 2568 582 L 2568 581 L 2565 578 L 2565 577 L 2564 576 L 2564 575 L 2563 574 L 2563 573 L 2562 572 L 2562 571 L 2560 569 L 2560 568 L 2557 565 L 2557 564 L 2556 563 L 2556 562 L 2555 561 L 2555 560 L 2554 559 L 2554 558 L 2552 556 L 2552 555 L 2550 553 L 2550 552 L 2548 550 L 2548 549 L 2547 548 L 2547 547 L 2546 546 L 2546 545 L 2544 543 L 2544 542 L 2542 540 L 2542 539 L 2540 537 L 2540 536 L 2539 535 L 2539 534 L 2538 533 L 2538 532 L 2537 531 L 2537 530 L 2534 527 L 2534 526 L 2533 525 L 2533 524 L 2532 523 L 2532 522 L 2530 520 L 2530 519 L 2529 518 L 2529 517 L 2528 516 L 2528 515 L 2525 512 L 2526 511 L 2530 511 L 2531 510 L 2533 510 L 2534 509 L 2537 509 L 2538 508 L 2541 508 L 2542 507 L 2544 507 L 2545 506 L 2547 506 L 2548 505 L 2549 505 L 2550 504 L 2551 504 L 2552 503 L 2553 503 L 2556 500 L 2557 500 L 2560 497 L 2561 497 L 2563 495 L 2563 494 L 2566 491 L 2566 490 L 2569 487 L 2569 486 L 2570 485 L 2570 484 L 2571 483 L 2571 482 L 2572 481 L 2572 480 L 2573 479 L 2573 477 L 2574 476 L 2574 473 L 2575 472 L 2575 471 L 2576 470 L 2576 465 L 2577 464 L 2577 453 L 2576 452 L 2576 446 L 2575 445 L 2575 443 L 2574 442 L 2574 440 L 2573 439 L 2573 437 L 2572 436 L 2572 434 L 2571 433 L 2571 432 L 2570 431 L 2570 430 L 2569 429 L 2569 428 L 2562 421 L 2562 420 L 2561 419 L 2560 419 L 2558 417 L 2557 417 L 2555 415 L 2554 415 L 2553 414 L 2552 414 L 2551 413 L 2550 413 L 2548 411 L 2547 411 L 2546 410 L 2544 410 L 2543 409 L 2541 409 L 2540 408 L 2538 408 L 2537 407 L 2533 407 L 2532 406 L 2527 406 L 2526 405 L 2521 405 L 2520 404 Z M 2244 404 L 2243 405 L 2243 607 L 2244 608 L 2245 607 L 2372 607 L 2372 588 L 2265 588 L 2264 587 L 2264 512 L 2265 511 L 2266 512 L 2361 512 L 2362 511 L 2362 492 L 2265 492 L 2264 491 L 2264 425 L 2265 424 L 2369 424 L 2369 404 Z M 2021 404 L 2021 424 L 2088 424 L 2089 425 L 2089 607 L 2090 608 L 2091 607 L 2093 607 L 2094 608 L 2095 607 L 2110 607 L 2110 425 L 2111 424 L 2177 424 L 2178 423 L 2178 405 L 2177 404 Z M 1788 404 L 1788 607 L 1789 608 L 1790 607 L 1791 608 L 1792 607 L 1809 607 L 1809 436 L 1810 435 L 1811 436 L 1811 437 L 1812 438 L 1812 439 L 1814 441 L 1814 442 L 1815 442 L 1816 443 L 1816 444 L 1818 446 L 1818 447 L 1820 449 L 1820 450 L 1821 451 L 1821 452 L 1825 456 L 1825 457 L 1827 459 L 1827 460 L 1828 461 L 1828 462 L 1831 465 L 1831 466 L 1834 469 L 1834 470 L 1836 472 L 1836 473 L 1837 474 L 1837 475 L 1839 477 L 1839 478 L 1840 478 L 1841 479 L 1841 480 L 1843 482 L 1843 483 L 1845 485 L 1845 486 L 1846 487 L 1846 488 L 1847 488 L 1848 489 L 1848 490 L 1850 492 L 1850 493 L 1852 495 L 1852 496 L 1853 497 L 1853 498 L 1857 502 L 1857 503 L 1859 505 L 1859 506 L 1861 508 L 1861 509 L 1863 511 L 1863 512 L 1866 515 L 1866 516 L 1868 518 L 1868 519 L 1870 521 L 1870 522 L 1873 525 L 1873 526 L 1875 528 L 1875 529 L 1877 531 L 1877 532 L 1879 534 L 1879 535 L 1882 538 L 1882 539 L 1884 541 L 1884 542 L 1886 544 L 1886 545 L 1887 546 L 1887 547 L 1888 547 L 1889 548 L 1889 549 L 1891 551 L 1891 552 L 1893 554 L 1893 555 L 1894 556 L 1894 557 L 1898 561 L 1898 562 L 1900 564 L 1900 565 L 1902 567 L 1902 568 L 1905 571 L 1905 572 L 1907 574 L 1907 575 L 1909 577 L 1909 578 L 1911 580 L 1911 581 L 1914 584 L 1914 585 L 1916 587 L 1916 588 L 1918 590 L 1918 591 L 1921 594 L 1921 595 L 1923 597 L 1923 598 L 1925 600 L 1925 601 L 1926 602 L 1926 603 L 1931 608 L 1932 607 L 1933 608 L 1934 608 L 1935 607 L 1956 607 L 1956 404 L 1935 404 L 1934 405 L 1934 566 L 1935 567 L 1934 568 L 1934 571 L 1935 572 L 1935 573 L 1934 574 L 1931 571 L 1931 570 L 1929 568 L 1929 567 L 1926 564 L 1926 563 L 1924 561 L 1924 560 L 1922 558 L 1922 557 L 1918 553 L 1918 552 L 1916 550 L 1916 549 L 1915 548 L 1915 547 L 1913 545 L 1913 544 L 1912 544 L 1911 543 L 1911 542 L 1909 540 L 1909 539 L 1908 538 L 1908 537 L 1906 535 L 1906 534 L 1902 530 L 1902 529 L 1900 527 L 1900 526 L 1898 524 L 1898 523 L 1895 520 L 1895 519 L 1893 517 L 1893 516 L 1891 514 L 1891 513 L 1889 511 L 1889 510 L 1886 507 L 1886 506 L 1883 503 L 1883 502 L 1882 501 L 1882 500 L 1878 496 L 1878 495 L 1876 493 L 1876 492 L 1875 491 L 1875 490 L 1871 486 L 1871 485 L 1869 483 L 1869 482 L 1867 480 L 1867 479 L 1865 477 L 1865 476 L 1862 473 L 1862 472 L 1860 470 L 1860 469 L 1858 467 L 1858 466 L 1857 465 L 1857 464 L 1856 464 L 1854 462 L 1854 461 L 1853 460 L 1853 459 L 1851 457 L 1851 456 L 1849 454 L 1849 453 L 1845 449 L 1845 448 L 1843 446 L 1843 445 L 1841 443 L 1841 442 L 1838 439 L 1838 438 L 1836 436 L 1836 435 L 1834 433 L 1834 432 L 1831 429 L 1831 428 L 1829 426 L 1829 425 L 1827 423 L 1827 422 L 1825 420 L 1825 419 L 1821 415 L 1821 414 L 1819 412 L 1819 411 L 1818 410 L 1818 409 L 1814 405 L 1814 404 Z M 1584 404 L 1584 607 L 1587 607 L 1588 608 L 1589 608 L 1590 607 L 1713 607 L 1714 606 L 1714 605 L 1713 604 L 1713 592 L 1714 591 L 1714 589 L 1713 588 L 1607 588 L 1605 586 L 1605 513 L 1606 512 L 1702 512 L 1703 511 L 1703 492 L 1606 492 L 1605 491 L 1605 425 L 1606 424 L 1709 424 L 1710 423 L 1710 404 Z M 1126 404 L 1126 423 L 1127 424 L 1193 424 L 1194 425 L 1194 607 L 1196 607 L 1197 608 L 1198 608 L 1199 607 L 1209 607 L 1210 608 L 1211 608 L 1212 607 L 1215 607 L 1215 425 L 1216 424 L 1282 424 L 1283 423 L 1283 404 Z M 944 404 L 944 607 L 950 607 L 951 608 L 952 607 L 959 607 L 960 608 L 961 608 L 962 607 L 963 608 L 964 607 L 965 607 L 965 514 L 966 513 L 999 513 L 1000 514 L 1000 515 L 1002 517 L 1002 518 L 1003 519 L 1003 520 L 1004 521 L 1004 522 L 1005 523 L 1005 524 L 1008 527 L 1008 528 L 1009 529 L 1009 530 L 1010 531 L 1010 532 L 1011 533 L 1011 534 L 1012 535 L 1012 536 L 1014 538 L 1014 539 L 1016 541 L 1016 542 L 1017 543 L 1017 544 L 1019 546 L 1019 547 L 1020 548 L 1020 549 L 1021 550 L 1021 551 L 1022 552 L 1022 553 L 1025 556 L 1025 557 L 1026 558 L 1026 559 L 1027 560 L 1027 561 L 1029 563 L 1029 565 L 1032 568 L 1032 569 L 1033 570 L 1033 571 L 1035 573 L 1035 574 L 1036 575 L 1036 576 L 1037 577 L 1037 578 L 1038 579 L 1038 580 L 1041 583 L 1041 584 L 1042 585 L 1042 586 L 1043 587 L 1043 588 L 1044 589 L 1044 590 L 1045 591 L 1045 592 L 1048 595 L 1048 596 L 1049 597 L 1049 598 L 1051 600 L 1051 601 L 1052 602 L 1052 603 L 1053 604 L 1053 605 L 1054 606 L 1054 607 L 1071 607 L 1072 608 L 1073 607 L 1076 607 L 1077 608 L 1078 608 L 1079 607 L 1080 607 L 1080 606 L 1078 604 L 1078 603 L 1077 602 L 1077 601 L 1076 600 L 1076 599 L 1074 597 L 1074 596 L 1073 595 L 1073 594 L 1070 591 L 1070 590 L 1069 589 L 1069 588 L 1068 587 L 1068 586 L 1067 585 L 1067 584 L 1065 582 L 1065 581 L 1064 580 L 1064 579 L 1061 576 L 1061 575 L 1060 574 L 1060 573 L 1059 572 L 1059 571 L 1058 570 L 1058 569 L 1056 567 L 1056 566 L 1054 564 L 1054 563 L 1052 561 L 1052 560 L 1051 559 L 1051 558 L 1050 557 L 1050 556 L 1049 555 L 1049 554 L 1046 551 L 1046 550 L 1045 549 L 1045 548 L 1043 546 L 1043 545 L 1042 544 L 1042 543 L 1041 542 L 1041 541 L 1038 538 L 1038 537 L 1037 536 L 1037 535 L 1035 533 L 1035 532 L 1034 531 L 1034 530 L 1033 529 L 1033 528 L 1030 525 L 1030 524 L 1029 523 L 1029 522 L 1028 521 L 1028 520 L 1026 518 L 1026 517 L 1025 516 L 1025 515 L 1024 514 L 1024 513 L 1023 513 L 1022 512 L 1023 511 L 1028 511 L 1029 510 L 1030 510 L 1031 509 L 1035 509 L 1036 508 L 1038 508 L 1039 507 L 1042 507 L 1043 506 L 1044 506 L 1045 505 L 1046 505 L 1047 504 L 1048 504 L 1049 503 L 1050 503 L 1052 501 L 1053 501 L 1056 498 L 1057 498 L 1060 495 L 1060 494 L 1065 489 L 1065 488 L 1067 486 L 1067 485 L 1068 484 L 1068 483 L 1069 482 L 1069 480 L 1070 479 L 1070 477 L 1071 476 L 1071 475 L 1072 474 L 1072 473 L 1073 472 L 1073 467 L 1074 466 L 1074 451 L 1073 450 L 1073 444 L 1072 443 L 1072 442 L 1071 441 L 1071 439 L 1070 438 L 1070 436 L 1069 435 L 1069 434 L 1068 433 L 1068 432 L 1067 431 L 1067 430 L 1066 429 L 1066 428 L 1062 424 L 1062 423 L 1057 418 L 1056 418 L 1054 416 L 1053 416 L 1051 414 L 1050 414 L 1049 413 L 1048 413 L 1047 412 L 1046 412 L 1045 411 L 1044 411 L 1043 410 L 1041 410 L 1040 409 L 1038 409 L 1037 408 L 1035 408 L 1034 407 L 1030 407 L 1029 406 L 1024 406 L 1023 405 L 1017 405 L 1016 404 Z M 758 404 L 758 405 L 757 406 L 757 407 L 755 409 L 755 411 L 754 412 L 754 413 L 753 414 L 753 416 L 752 417 L 752 418 L 751 419 L 751 421 L 750 422 L 750 423 L 749 424 L 749 426 L 747 428 L 747 429 L 746 430 L 746 432 L 745 433 L 745 434 L 744 435 L 744 437 L 743 438 L 743 439 L 742 440 L 742 442 L 741 443 L 741 444 L 740 445 L 740 446 L 739 447 L 739 448 L 738 449 L 738 450 L 737 451 L 737 453 L 736 454 L 736 455 L 735 456 L 735 458 L 734 459 L 734 460 L 733 461 L 733 463 L 731 465 L 731 466 L 730 467 L 730 469 L 729 470 L 729 471 L 728 472 L 728 474 L 727 475 L 727 476 L 726 477 L 726 479 L 725 480 L 725 481 L 723 483 L 723 484 L 722 485 L 722 487 L 721 488 L 721 490 L 720 491 L 720 492 L 719 493 L 719 495 L 718 496 L 718 497 L 717 498 L 717 500 L 715 502 L 715 503 L 714 504 L 714 506 L 713 507 L 713 508 L 712 509 L 712 511 L 711 512 L 711 513 L 710 514 L 710 516 L 709 517 L 709 518 L 708 519 L 708 520 L 707 521 L 707 522 L 706 523 L 706 524 L 705 525 L 705 527 L 704 528 L 704 529 L 703 530 L 703 532 L 702 533 L 702 534 L 701 535 L 701 537 L 699 539 L 699 540 L 698 541 L 698 543 L 697 544 L 697 545 L 696 546 L 696 548 L 695 549 L 695 550 L 694 551 L 694 553 L 693 554 L 693 555 L 692 556 L 692 557 L 691 558 L 691 559 L 690 560 L 690 561 L 689 562 L 689 564 L 688 565 L 688 566 L 687 567 L 687 569 L 686 570 L 686 571 L 685 572 L 685 574 L 683 576 L 683 577 L 682 578 L 682 580 L 681 581 L 681 582 L 680 583 L 680 585 L 679 586 L 679 587 L 678 588 L 678 590 L 677 591 L 677 592 L 676 593 L 676 594 L 675 595 L 675 596 L 674 597 L 674 598 L 673 599 L 673 601 L 672 602 L 672 603 L 671 604 L 671 607 L 674 607 L 675 608 L 676 608 L 677 607 L 720 607 L 720 606 L 721 605 L 721 603 L 722 602 L 722 600 L 723 599 L 723 598 L 725 596 L 725 594 L 726 593 L 726 591 L 727 590 L 727 588 L 728 587 L 728 586 L 729 585 L 729 583 L 730 582 L 730 580 L 731 579 L 731 578 L 733 576 L 733 573 L 734 572 L 734 571 L 735 570 L 735 568 L 736 567 L 736 565 L 737 564 L 814 564 L 816 566 L 816 567 L 817 568 L 817 570 L 818 571 L 818 573 L 819 574 L 819 576 L 820 577 L 820 578 L 822 580 L 822 582 L 823 583 L 823 584 L 824 585 L 824 587 L 825 588 L 825 590 L 826 591 L 826 592 L 827 593 L 827 595 L 828 596 L 828 597 L 829 598 L 829 599 L 830 600 L 830 601 L 831 602 L 831 604 L 832 605 L 832 607 L 838 607 L 839 608 L 840 607 L 883 607 L 883 606 L 882 605 L 882 603 L 881 602 L 881 601 L 880 600 L 880 598 L 879 597 L 879 596 L 878 595 L 878 594 L 877 593 L 877 592 L 876 591 L 876 590 L 875 589 L 875 587 L 874 586 L 874 585 L 873 584 L 873 582 L 872 581 L 872 580 L 871 579 L 871 577 L 869 575 L 869 574 L 868 573 L 868 572 L 867 571 L 867 569 L 866 568 L 866 566 L 865 565 L 865 564 L 864 563 L 864 561 L 863 560 L 863 559 L 862 558 L 862 557 L 860 555 L 860 553 L 859 552 L 859 551 L 858 550 L 858 548 L 857 547 L 857 545 L 856 544 L 856 543 L 855 542 L 855 540 L 853 538 L 853 537 L 852 536 L 852 535 L 851 534 L 851 532 L 850 531 L 850 530 L 849 529 L 849 527 L 848 526 L 848 525 L 847 524 L 847 522 L 845 520 L 845 519 L 844 518 L 844 516 L 843 515 L 843 514 L 842 513 L 842 511 L 841 510 L 841 509 L 840 508 L 840 506 L 839 505 L 839 504 L 838 503 L 838 501 L 836 499 L 836 498 L 835 497 L 835 496 L 834 495 L 834 493 L 833 492 L 833 490 L 832 489 L 832 488 L 831 487 L 831 485 L 830 484 L 830 483 L 828 481 L 828 480 L 827 479 L 827 477 L 826 476 L 826 475 L 825 474 L 825 472 L 824 471 L 824 470 L 823 469 L 823 467 L 822 466 L 822 465 L 821 464 L 821 463 L 820 462 L 820 461 L 819 460 L 819 459 L 818 458 L 818 456 L 817 455 L 817 454 L 816 453 L 816 451 L 815 450 L 815 449 L 814 448 L 814 446 L 812 444 L 812 443 L 811 442 L 811 440 L 810 439 L 810 438 L 809 437 L 809 435 L 808 434 L 808 433 L 807 432 L 807 431 L 806 430 L 806 428 L 804 426 L 804 424 L 803 423 L 803 422 L 802 421 L 802 419 L 801 418 L 801 417 L 800 416 L 800 414 L 799 413 L 799 412 L 798 411 L 798 409 L 796 407 L 796 406 L 795 405 L 795 404 Z M 237 404 L 237 406 L 238 407 L 238 410 L 240 412 L 240 415 L 241 416 L 241 419 L 242 420 L 242 422 L 243 423 L 243 426 L 244 427 L 244 430 L 245 431 L 245 433 L 246 434 L 246 437 L 248 439 L 248 442 L 249 443 L 249 445 L 250 446 L 250 449 L 251 450 L 251 453 L 252 454 L 252 457 L 253 458 L 253 460 L 254 461 L 254 464 L 255 465 L 255 466 L 256 467 L 256 469 L 257 470 L 257 472 L 258 473 L 258 476 L 259 477 L 259 480 L 260 481 L 260 483 L 261 484 L 261 487 L 262 488 L 262 490 L 263 491 L 263 492 L 264 493 L 264 496 L 265 497 L 265 499 L 266 500 L 266 503 L 267 504 L 267 507 L 268 508 L 268 511 L 269 512 L 269 514 L 270 515 L 270 518 L 271 519 L 271 520 L 272 521 L 272 523 L 273 524 L 273 526 L 274 527 L 274 530 L 275 531 L 275 534 L 276 535 L 276 537 L 277 538 L 277 541 L 278 542 L 278 545 L 279 546 L 279 547 L 280 548 L 280 550 L 281 551 L 281 553 L 282 554 L 282 557 L 283 558 L 283 561 L 284 562 L 284 564 L 285 565 L 285 568 L 286 569 L 286 572 L 287 573 L 287 574 L 288 575 L 288 577 L 289 578 L 289 580 L 290 581 L 290 584 L 291 585 L 291 588 L 292 589 L 292 591 L 293 592 L 293 595 L 294 596 L 294 599 L 295 600 L 295 601 L 296 602 L 296 604 L 297 605 L 297 607 L 300 607 L 301 608 L 302 607 L 303 608 L 304 607 L 336 607 L 337 606 L 337 603 L 338 602 L 338 600 L 339 599 L 339 597 L 340 596 L 340 593 L 341 592 L 341 590 L 342 589 L 342 586 L 343 585 L 343 583 L 345 581 L 345 578 L 346 577 L 346 575 L 347 574 L 347 572 L 348 571 L 348 568 L 349 567 L 349 565 L 350 564 L 350 561 L 351 560 L 351 558 L 352 557 L 352 556 L 353 555 L 353 554 L 354 553 L 354 550 L 355 549 L 355 546 L 356 545 L 356 543 L 357 542 L 357 540 L 358 539 L 358 536 L 359 535 L 359 533 L 360 532 L 360 531 L 361 530 L 361 528 L 362 527 L 362 525 L 363 524 L 363 521 L 364 520 L 364 518 L 365 517 L 365 514 L 366 513 L 366 511 L 367 510 L 367 508 L 368 507 L 368 506 L 369 505 L 369 503 L 370 502 L 370 500 L 371 499 L 371 496 L 372 495 L 372 493 L 373 492 L 373 489 L 374 488 L 374 486 L 375 485 L 375 483 L 376 482 L 376 480 L 377 479 L 377 478 L 378 477 L 378 474 L 379 473 L 379 471 L 381 469 L 382 470 L 382 473 L 383 474 L 383 476 L 384 477 L 384 478 L 385 479 L 385 481 L 386 482 L 386 484 L 387 485 L 387 488 L 388 489 L 388 491 L 389 492 L 389 495 L 390 496 L 390 498 L 391 499 L 391 502 L 393 504 L 393 506 L 394 507 L 394 509 L 395 510 L 395 513 L 396 514 L 396 516 L 397 517 L 397 520 L 398 521 L 398 523 L 399 524 L 399 527 L 400 528 L 400 529 L 401 530 L 401 531 L 402 532 L 402 534 L 403 535 L 403 538 L 404 539 L 404 542 L 405 543 L 405 545 L 406 546 L 406 548 L 407 549 L 407 552 L 408 553 L 408 554 L 409 555 L 409 556 L 410 557 L 410 560 L 411 561 L 411 563 L 412 564 L 412 567 L 413 568 L 413 570 L 414 571 L 414 573 L 415 574 L 415 577 L 416 578 L 416 579 L 417 580 L 417 582 L 418 583 L 418 585 L 419 586 L 419 588 L 420 589 L 420 592 L 421 593 L 421 595 L 422 596 L 422 599 L 423 600 L 423 602 L 424 603 L 424 605 L 426 607 L 427 607 L 428 608 L 429 607 L 430 608 L 431 608 L 432 607 L 463 607 L 464 608 L 466 606 L 466 605 L 467 604 L 467 602 L 468 601 L 468 598 L 469 597 L 469 594 L 470 593 L 470 590 L 471 589 L 471 586 L 472 585 L 472 583 L 473 582 L 473 580 L 474 579 L 474 578 L 475 577 L 475 574 L 476 573 L 476 570 L 477 569 L 477 567 L 478 566 L 478 563 L 479 562 L 479 559 L 480 558 L 480 556 L 481 555 L 481 553 L 482 552 L 482 550 L 483 549 L 483 547 L 484 546 L 484 543 L 485 542 L 485 539 L 486 538 L 486 536 L 487 535 L 487 532 L 488 531 L 488 528 L 489 527 L 489 525 L 490 524 L 490 523 L 491 522 L 491 519 L 492 518 L 492 516 L 493 515 L 493 512 L 494 511 L 494 508 L 495 507 L 495 504 L 496 503 L 496 501 L 497 500 L 497 498 L 498 497 L 498 496 L 499 495 L 499 492 L 500 491 L 500 488 L 501 487 L 501 485 L 502 484 L 502 481 L 503 480 L 503 477 L 504 476 L 504 474 L 505 473 L 505 471 L 506 470 L 506 469 L 507 468 L 507 465 L 508 464 L 508 461 L 509 460 L 509 457 L 510 456 L 510 453 L 511 452 L 511 450 L 512 449 L 512 446 L 513 445 L 513 443 L 514 442 L 514 441 L 515 440 L 515 437 L 516 436 L 516 434 L 517 433 L 517 430 L 518 429 L 518 426 L 519 425 L 519 422 L 520 421 L 520 419 L 521 418 L 521 415 L 523 413 L 523 410 L 524 409 L 524 406 L 525 405 L 524 404 L 480 404 L 478 406 L 478 409 L 477 410 L 477 414 L 476 415 L 476 418 L 475 419 L 475 422 L 474 423 L 474 426 L 473 427 L 473 428 L 472 429 L 472 432 L 471 433 L 471 436 L 470 437 L 470 441 L 469 442 L 469 445 L 468 446 L 468 449 L 467 450 L 467 454 L 466 455 L 466 457 L 465 458 L 465 459 L 464 460 L 464 464 L 463 465 L 463 468 L 462 469 L 462 472 L 461 473 L 461 476 L 460 477 L 460 481 L 459 482 L 459 485 L 458 486 L 458 489 L 457 490 L 457 491 L 456 492 L 456 495 L 455 496 L 455 499 L 454 500 L 454 503 L 453 504 L 453 508 L 452 509 L 452 512 L 451 513 L 451 516 L 450 517 L 450 520 L 449 521 L 449 522 L 448 523 L 448 526 L 447 527 L 447 530 L 446 531 L 446 535 L 445 536 L 444 535 L 444 533 L 443 532 L 443 530 L 442 529 L 442 526 L 440 524 L 440 521 L 439 520 L 439 518 L 438 517 L 438 515 L 437 514 L 437 511 L 436 510 L 436 508 L 435 507 L 435 504 L 434 503 L 434 501 L 433 500 L 433 499 L 432 498 L 432 496 L 431 495 L 431 493 L 430 492 L 430 489 L 429 488 L 429 486 L 428 485 L 428 482 L 427 481 L 427 479 L 426 478 L 426 475 L 424 473 L 424 471 L 423 470 L 423 467 L 422 466 L 422 464 L 421 463 L 421 460 L 420 459 L 420 457 L 419 456 L 419 453 L 418 452 L 418 450 L 417 449 L 417 448 L 416 447 L 416 445 L 415 444 L 415 442 L 414 441 L 414 438 L 413 437 L 413 435 L 412 434 L 412 432 L 411 431 L 411 428 L 410 427 L 410 425 L 409 424 L 409 423 L 408 422 L 408 420 L 407 419 L 407 417 L 406 416 L 406 413 L 405 412 L 405 410 L 404 409 L 404 406 L 403 405 L 403 404 L 361 404 L 361 405 L 360 406 L 360 407 L 359 408 L 359 410 L 358 411 L 358 414 L 357 415 L 357 417 L 356 418 L 356 421 L 355 422 L 355 424 L 354 425 L 354 427 L 353 428 L 353 430 L 352 431 L 352 432 L 351 433 L 351 435 L 350 436 L 350 438 L 349 439 L 349 442 L 348 443 L 348 445 L 347 446 L 347 448 L 346 449 L 346 452 L 345 453 L 345 455 L 343 457 L 343 459 L 342 460 L 342 463 L 341 464 L 341 466 L 340 467 L 340 469 L 339 470 L 339 473 L 338 474 L 338 476 L 337 477 L 337 479 L 336 480 L 336 481 L 335 482 L 335 484 L 334 485 L 334 487 L 333 488 L 333 490 L 332 491 L 332 494 L 331 495 L 331 497 L 330 498 L 330 501 L 329 502 L 329 504 L 328 505 L 328 506 L 327 507 L 327 508 L 326 509 L 326 512 L 325 513 L 325 515 L 324 516 L 324 519 L 323 520 L 323 522 L 322 523 L 322 525 L 321 526 L 321 528 L 320 529 L 320 531 L 319 532 L 317 530 L 317 527 L 316 526 L 316 522 L 315 521 L 315 518 L 314 517 L 314 513 L 313 512 L 313 508 L 311 506 L 311 503 L 310 502 L 310 499 L 309 498 L 309 495 L 308 494 L 308 490 L 307 489 L 307 485 L 306 484 L 306 481 L 305 480 L 305 477 L 304 476 L 304 475 L 303 474 L 303 471 L 302 470 L 302 467 L 301 466 L 301 462 L 300 461 L 300 458 L 299 457 L 299 453 L 298 452 L 298 449 L 297 448 L 297 445 L 296 444 L 296 443 L 295 442 L 295 439 L 294 438 L 294 435 L 293 434 L 293 430 L 292 429 L 292 426 L 291 425 L 291 421 L 290 420 L 290 417 L 289 416 L 289 412 L 287 410 L 287 407 L 286 406 L 286 404 Z M 20 404 L 19 405 L 19 607 L 20 608 L 21 607 L 62 607 L 63 608 L 64 607 L 64 514 L 65 513 L 72 520 L 72 521 L 76 525 L 76 526 L 83 533 L 83 534 L 90 541 L 90 542 L 97 549 L 97 550 L 100 553 L 100 554 L 101 554 L 103 556 L 103 557 L 106 560 L 106 561 L 113 568 L 113 569 L 120 576 L 120 577 L 124 581 L 124 582 L 125 582 L 126 583 L 126 584 L 131 589 L 131 590 L 138 597 L 138 598 L 145 605 L 145 606 L 146 607 L 148 607 L 149 608 L 150 607 L 199 607 L 200 608 L 201 607 L 202 608 L 203 607 L 204 607 L 205 608 L 206 607 L 207 608 L 208 608 L 209 607 L 209 606 L 201 598 L 201 597 L 200 597 L 199 596 L 199 595 L 198 595 L 197 594 L 197 593 L 193 589 L 193 588 L 192 587 L 191 587 L 187 583 L 187 582 L 179 574 L 179 573 L 171 565 L 171 564 L 163 556 L 163 555 L 154 546 L 154 545 L 144 535 L 144 534 L 136 526 L 136 525 L 127 516 L 127 515 L 126 515 L 123 512 L 123 511 L 120 508 L 120 507 L 119 507 L 114 502 L 114 501 L 112 499 L 112 498 L 116 494 L 116 493 L 118 491 L 119 491 L 122 488 L 122 487 L 139 470 L 139 469 L 142 466 L 143 466 L 145 464 L 145 463 L 163 445 L 163 444 L 168 439 L 169 439 L 169 438 L 187 420 L 187 419 L 191 415 L 192 415 L 193 414 L 193 413 L 201 405 L 201 404 L 143 404 L 129 418 L 129 419 L 119 429 L 119 430 L 118 431 L 117 431 L 114 434 L 114 435 L 104 445 L 104 446 L 101 449 L 100 449 L 98 451 L 98 452 L 88 462 L 88 463 L 86 465 L 85 465 L 83 467 L 83 468 L 73 478 L 73 479 L 65 487 L 64 486 L 64 404 Z M 1430 399 L 1429 400 L 1422 400 L 1421 401 L 1416 401 L 1415 402 L 1411 402 L 1410 403 L 1408 403 L 1407 404 L 1406 404 L 1405 405 L 1403 405 L 1402 406 L 1400 406 L 1399 407 L 1398 407 L 1397 408 L 1395 408 L 1394 409 L 1393 409 L 1392 410 L 1391 410 L 1390 411 L 1389 411 L 1387 413 L 1386 413 L 1385 414 L 1384 414 L 1383 415 L 1382 415 L 1380 417 L 1379 417 L 1377 419 L 1376 419 L 1371 424 L 1370 424 L 1358 436 L 1358 437 L 1355 440 L 1355 441 L 1352 444 L 1352 445 L 1351 446 L 1351 447 L 1349 449 L 1349 450 L 1348 451 L 1348 452 L 1347 453 L 1347 454 L 1345 456 L 1345 458 L 1344 459 L 1344 460 L 1343 461 L 1343 462 L 1342 463 L 1342 465 L 1341 466 L 1341 468 L 1340 469 L 1340 471 L 1339 472 L 1339 474 L 1338 475 L 1338 477 L 1337 478 L 1337 482 L 1336 483 L 1336 488 L 1335 489 L 1335 501 L 1334 502 L 1334 508 L 1335 509 L 1335 522 L 1336 523 L 1336 529 L 1337 530 L 1337 533 L 1338 534 L 1338 536 L 1339 537 L 1339 539 L 1340 540 L 1340 542 L 1341 543 L 1341 545 L 1342 546 L 1342 548 L 1343 549 L 1343 550 L 1344 551 L 1344 553 L 1345 554 L 1345 555 L 1347 557 L 1347 558 L 1348 559 L 1348 560 L 1349 561 L 1349 562 L 1350 563 L 1350 564 L 1352 566 L 1352 567 L 1355 570 L 1355 571 L 1358 574 L 1358 575 L 1361 578 L 1361 579 L 1362 579 L 1371 588 L 1372 588 L 1378 594 L 1379 594 L 1380 595 L 1381 595 L 1382 596 L 1383 596 L 1385 598 L 1386 598 L 1387 599 L 1388 599 L 1390 601 L 1391 601 L 1392 602 L 1394 602 L 1395 603 L 1396 603 L 1397 604 L 1399 604 L 1400 605 L 1401 605 L 1402 606 L 1404 606 L 1405 607 L 1406 607 L 1407 608 L 1409 608 L 1410 609 L 1413 609 L 1414 610 L 1419 610 L 1420 611 L 1425 611 L 1426 612 L 1454 612 L 1455 611 L 1459 611 L 1460 610 L 1464 610 L 1465 609 L 1468 609 L 1469 608 L 1471 608 L 1472 607 L 1473 607 L 1474 606 L 1476 606 L 1477 605 L 1478 605 L 1479 604 L 1481 604 L 1482 603 L 1483 603 L 1484 602 L 1486 602 L 1488 600 L 1489 600 L 1492 597 L 1493 597 L 1494 596 L 1495 596 L 1497 594 L 1498 594 L 1501 591 L 1502 591 L 1502 590 L 1505 587 L 1506 587 L 1509 584 L 1509 583 L 1513 579 L 1513 578 L 1515 576 L 1515 575 L 1510 570 L 1509 570 L 1508 569 L 1507 569 L 1505 567 L 1504 567 L 1500 563 L 1498 563 L 1496 565 L 1496 566 L 1494 568 L 1494 569 L 1484 579 L 1483 579 L 1479 583 L 1478 583 L 1477 584 L 1476 584 L 1475 585 L 1474 585 L 1473 586 L 1472 586 L 1471 587 L 1469 587 L 1468 588 L 1467 588 L 1466 589 L 1463 589 L 1461 591 L 1457 591 L 1456 592 L 1450 592 L 1449 593 L 1431 593 L 1430 592 L 1423 592 L 1422 591 L 1421 591 L 1420 590 L 1417 590 L 1416 589 L 1414 589 L 1413 588 L 1411 588 L 1410 587 L 1408 587 L 1407 586 L 1406 586 L 1405 585 L 1403 585 L 1402 584 L 1401 584 L 1399 582 L 1398 582 L 1396 580 L 1395 580 L 1393 578 L 1392 578 L 1390 576 L 1389 576 L 1376 563 L 1376 562 L 1374 560 L 1374 559 L 1372 557 L 1372 556 L 1369 553 L 1369 552 L 1368 551 L 1368 550 L 1367 549 L 1367 547 L 1366 546 L 1366 545 L 1365 544 L 1365 542 L 1364 541 L 1364 540 L 1363 539 L 1363 538 L 1362 537 L 1362 535 L 1361 534 L 1361 532 L 1360 531 L 1360 527 L 1359 526 L 1359 521 L 1358 520 L 1358 491 L 1359 490 L 1359 485 L 1360 484 L 1360 481 L 1361 480 L 1361 477 L 1362 476 L 1362 474 L 1364 472 L 1364 470 L 1365 469 L 1365 467 L 1366 466 L 1366 465 L 1367 464 L 1367 463 L 1368 462 L 1368 460 L 1370 458 L 1370 457 L 1373 454 L 1373 453 L 1374 452 L 1374 451 L 1378 447 L 1378 446 L 1387 437 L 1388 437 L 1392 433 L 1393 433 L 1394 432 L 1395 432 L 1397 430 L 1398 430 L 1400 428 L 1401 428 L 1402 427 L 1403 427 L 1404 426 L 1405 426 L 1406 425 L 1408 425 L 1409 424 L 1411 424 L 1412 423 L 1414 423 L 1415 422 L 1417 422 L 1418 421 L 1419 421 L 1420 420 L 1424 420 L 1425 419 L 1434 419 L 1435 418 L 1444 418 L 1445 419 L 1452 419 L 1453 420 L 1456 420 L 1457 421 L 1458 421 L 1459 422 L 1461 422 L 1462 423 L 1463 423 L 1464 424 L 1466 424 L 1467 425 L 1468 425 L 1469 426 L 1470 426 L 1471 427 L 1472 427 L 1473 428 L 1474 428 L 1476 430 L 1477 430 L 1480 433 L 1481 433 L 1483 435 L 1484 435 L 1487 438 L 1487 439 L 1491 443 L 1491 444 L 1494 444 L 1496 442 L 1497 442 L 1500 439 L 1501 439 L 1504 436 L 1505 436 L 1508 433 L 1509 433 L 1511 431 L 1504 424 L 1504 423 L 1503 423 L 1502 422 L 1502 421 L 1501 420 L 1500 420 L 1496 416 L 1495 416 L 1493 414 L 1492 414 L 1491 413 L 1490 413 L 1487 410 L 1485 410 L 1484 409 L 1483 409 L 1482 408 L 1481 408 L 1480 407 L 1479 407 L 1478 406 L 1476 406 L 1475 405 L 1474 405 L 1473 404 L 1471 404 L 1470 403 L 1468 403 L 1467 402 L 1463 402 L 1462 401 L 1458 401 L 1457 400 L 1450 400 L 1449 399 Z M 54 175 L 53 176 L 52 176 L 51 177 L 51 178 L 53 180 L 53 181 L 55 183 L 55 184 L 56 185 L 56 186 L 57 187 L 57 188 L 58 189 L 58 190 L 59 191 L 59 193 L 60 194 L 60 195 L 61 196 L 61 197 L 62 198 L 62 199 L 63 200 L 63 201 L 64 202 L 64 204 L 65 205 L 65 207 L 66 208 L 66 210 L 67 211 L 67 215 L 68 216 L 68 219 L 69 220 L 69 221 L 70 222 L 70 227 L 71 228 L 71 233 L 74 236 L 75 236 L 76 237 L 78 237 L 79 238 L 84 238 L 85 237 L 86 237 L 91 232 L 91 231 L 92 230 L 92 227 L 93 226 L 93 217 L 92 216 L 92 213 L 91 212 L 91 210 L 90 209 L 90 208 L 89 207 L 89 205 L 87 203 L 87 202 L 84 199 L 84 198 L 72 186 L 71 186 L 68 183 L 67 183 L 65 181 L 64 181 L 63 180 L 62 180 L 60 178 L 59 178 L 57 176 L 56 176 L 55 175 Z M 185 174 L 185 175 L 184 176 L 184 178 L 183 179 L 183 181 L 181 183 L 181 185 L 180 186 L 180 188 L 179 189 L 179 191 L 178 192 L 178 194 L 177 195 L 177 196 L 176 197 L 176 199 L 175 200 L 175 202 L 173 204 L 173 206 L 172 207 L 172 208 L 171 209 L 171 211 L 170 212 L 170 213 L 169 214 L 169 216 L 168 217 L 168 218 L 167 219 L 167 221 L 165 223 L 165 224 L 164 225 L 164 226 L 163 227 L 163 229 L 162 230 L 162 231 L 161 232 L 161 233 L 160 234 L 160 236 L 159 237 L 159 238 L 160 239 L 161 239 L 162 240 L 163 240 L 165 238 L 166 238 L 179 225 L 179 224 L 187 216 L 187 215 L 194 208 L 194 207 L 197 204 L 197 203 L 202 198 L 202 197 L 203 196 L 203 195 L 207 191 L 212 191 L 213 190 L 214 190 L 217 187 L 217 186 L 216 186 L 215 185 L 214 185 L 213 184 L 211 184 L 210 183 L 208 183 L 207 182 L 205 182 L 204 181 L 203 181 L 202 180 L 200 180 L 199 179 L 197 179 L 195 177 L 193 177 L 192 176 L 190 176 L 189 175 L 188 175 L 187 174 Z M 2551 94 L 2550 95 L 2549 95 L 2548 96 L 2548 97 L 2554 103 L 2554 104 L 2556 106 L 2556 107 L 2557 108 L 2557 109 L 2560 112 L 2560 113 L 2561 114 L 2561 115 L 2562 116 L 2562 117 L 2563 118 L 2563 119 L 2564 120 L 2564 121 L 2565 122 L 2565 123 L 2566 124 L 2566 125 L 2568 127 L 2568 128 L 2569 129 L 2569 131 L 2570 132 L 2570 133 L 2571 134 L 2571 136 L 2572 137 L 2572 139 L 2573 140 L 2573 142 L 2574 143 L 2574 144 L 2575 145 L 2575 146 L 2576 147 L 2576 149 L 2577 150 L 2577 152 L 2578 153 L 2578 156 L 2579 157 L 2579 160 L 2580 161 L 2580 164 L 2581 165 L 2581 168 L 2582 169 L 2582 172 L 2583 173 L 2583 175 L 2584 176 L 2584 180 L 2585 181 L 2585 186 L 2586 187 L 2586 192 L 2587 193 L 2587 195 L 2590 198 L 2591 198 L 2592 199 L 2593 199 L 2594 200 L 2599 200 L 2600 199 L 2601 199 L 2602 198 L 2603 198 L 2603 197 L 2605 195 L 2605 194 L 2606 193 L 2606 192 L 2608 190 L 2608 188 L 2609 187 L 2609 167 L 2608 166 L 2608 164 L 2607 163 L 2607 161 L 2606 160 L 2606 158 L 2605 157 L 2605 155 L 2604 154 L 2604 152 L 2603 151 L 2603 150 L 2602 149 L 2602 147 L 2601 146 L 2601 145 L 2599 143 L 2599 142 L 2597 140 L 2597 139 L 2596 138 L 2596 137 L 2595 136 L 2595 135 L 2593 133 L 2593 132 L 2589 128 L 2589 127 L 2585 123 L 2585 122 L 2572 109 L 2571 109 L 2564 102 L 2563 102 L 2560 99 L 2559 99 L 2557 97 L 2556 97 L 2553 94 Z M 1098 94 L 1091 101 L 1091 102 L 1088 105 L 1087 105 L 1086 106 L 945 106 L 945 108 L 946 109 L 946 112 L 947 113 L 947 114 L 948 115 L 1075 115 L 1076 116 L 1075 117 L 1074 117 L 1072 119 L 1071 119 L 1068 122 L 1067 122 L 1064 125 L 1063 125 L 1062 126 L 1061 126 L 1058 129 L 1057 129 L 1055 131 L 1054 131 L 1052 133 L 1051 133 L 1049 135 L 1048 135 L 1045 138 L 1044 138 L 1041 141 L 1040 141 L 1039 142 L 1038 142 L 1035 145 L 1034 145 L 1031 148 L 1030 148 L 1029 149 L 1028 149 L 1026 151 L 1025 151 L 1023 153 L 1022 153 L 1019 156 L 1018 156 L 1016 158 L 1015 158 L 1013 160 L 1012 160 L 1009 163 L 1008 163 L 1007 164 L 1006 164 L 1003 167 L 1002 167 L 1000 169 L 999 169 L 995 173 L 994 173 L 992 175 L 991 175 L 987 179 L 986 179 L 983 182 L 982 182 L 978 186 L 977 186 L 975 188 L 974 188 L 960 202 L 960 203 L 955 208 L 955 209 L 954 210 L 954 211 L 953 212 L 953 213 L 952 214 L 952 216 L 951 217 L 951 219 L 950 220 L 950 222 L 949 223 L 949 226 L 950 227 L 950 229 L 951 230 L 951 233 L 952 234 L 952 236 L 953 237 L 953 238 L 955 240 L 955 241 L 960 246 L 961 246 L 963 248 L 964 248 L 965 249 L 966 249 L 967 250 L 968 250 L 969 251 L 970 251 L 971 252 L 972 252 L 973 253 L 975 253 L 976 254 L 979 254 L 980 255 L 984 255 L 985 256 L 991 256 L 992 257 L 1003 257 L 1004 258 L 1131 258 L 1132 257 L 1145 257 L 1146 256 L 1153 256 L 1154 255 L 1158 255 L 1159 254 L 1162 254 L 1163 253 L 1166 253 L 1167 252 L 1168 252 L 1170 250 L 1171 250 L 1175 246 L 1175 245 L 1176 244 L 1176 238 L 1173 235 L 1172 235 L 1170 233 L 1168 233 L 1167 232 L 1165 232 L 1164 231 L 1164 198 L 1165 197 L 1165 188 L 1161 188 L 1160 189 L 1160 190 L 1159 191 L 1159 195 L 1158 196 L 1158 200 L 1157 201 L 1157 205 L 1156 206 L 1156 209 L 1155 210 L 1155 213 L 1154 214 L 1154 216 L 1153 217 L 1153 218 L 1152 219 L 1152 220 L 1151 221 L 1151 223 L 1150 224 L 1150 225 L 1149 226 L 1149 228 L 1144 233 L 1142 233 L 1141 234 L 1137 234 L 1136 235 L 1133 235 L 1132 236 L 1003 236 L 1002 235 L 997 235 L 996 234 L 992 234 L 991 233 L 988 233 L 987 232 L 984 232 L 983 231 L 982 231 L 978 227 L 978 226 L 977 225 L 977 220 L 978 219 L 978 218 L 979 217 L 979 216 L 980 215 L 980 214 L 995 199 L 996 199 L 1001 194 L 1002 194 L 1006 190 L 1007 190 L 1008 189 L 1009 189 L 1009 188 L 1010 187 L 1011 187 L 1014 184 L 1015 184 L 1016 183 L 1017 183 L 1022 178 L 1023 178 L 1025 176 L 1026 176 L 1028 174 L 1029 174 L 1031 172 L 1032 172 L 1035 169 L 1036 169 L 1038 167 L 1039 167 L 1040 166 L 1041 166 L 1045 162 L 1046 162 L 1048 160 L 1049 160 L 1050 159 L 1051 159 L 1053 157 L 1054 157 L 1056 155 L 1057 155 L 1060 152 L 1061 152 L 1063 150 L 1065 150 L 1069 146 L 1070 146 L 1072 144 L 1073 144 L 1074 143 L 1075 143 L 1077 141 L 1078 141 L 1079 140 L 1080 140 L 1083 137 L 1084 137 L 1086 135 L 1087 135 L 1088 134 L 1089 134 L 1091 132 L 1092 132 L 1095 129 L 1096 129 L 1097 128 L 1098 128 L 1100 126 L 1101 126 L 1102 125 L 1103 125 L 1106 122 L 1107 122 L 1109 120 L 1118 120 L 1119 119 L 1120 119 L 1121 118 L 1123 118 L 1123 117 L 1124 116 L 1123 116 L 1113 106 L 1112 106 L 1105 99 L 1104 99 L 1100 95 L 1100 94 Z M 171 90 L 166 95 L 166 96 L 162 100 L 162 101 L 157 106 L 62 106 L 62 107 L 63 108 L 63 111 L 64 112 L 64 114 L 70 114 L 71 115 L 72 114 L 112 114 L 113 115 L 114 115 L 115 114 L 116 114 L 117 115 L 117 156 L 116 157 L 22 157 L 22 159 L 23 160 L 23 162 L 24 163 L 24 165 L 116 165 L 117 166 L 117 247 L 116 248 L 9 248 L 9 252 L 10 253 L 10 256 L 11 257 L 249 257 L 250 256 L 252 256 L 254 254 L 254 252 L 249 247 L 248 247 L 244 243 L 243 243 L 241 241 L 241 240 L 240 240 L 239 239 L 238 239 L 233 234 L 232 234 L 228 230 L 227 230 L 226 229 L 225 229 L 225 230 L 221 234 L 221 235 L 218 238 L 218 239 L 213 244 L 213 245 L 210 248 L 141 248 L 140 247 L 140 166 L 141 165 L 238 165 L 239 164 L 240 164 L 242 162 L 242 159 L 241 159 L 238 156 L 237 156 L 231 150 L 230 150 L 225 145 L 224 145 L 221 142 L 220 142 L 217 139 L 215 139 L 212 142 L 212 143 L 209 146 L 209 147 L 204 152 L 204 153 L 200 157 L 141 157 L 140 156 L 140 115 L 141 114 L 188 114 L 189 115 L 190 114 L 193 114 L 196 111 L 196 109 L 191 104 L 190 104 L 186 100 L 185 100 L 182 97 L 181 97 L 177 93 L 176 93 L 174 91 L 173 91 L 172 90 Z M 2379 88 L 2377 90 L 2377 109 L 2376 110 L 2376 118 L 2375 119 L 2375 124 L 2374 125 L 2374 129 L 2373 130 L 2373 131 L 2372 132 L 2372 135 L 2371 136 L 2371 139 L 2370 140 L 2370 142 L 2369 143 L 2369 146 L 2368 147 L 2368 149 L 2367 150 L 2367 152 L 2366 153 L 2366 154 L 2364 156 L 2364 158 L 2363 159 L 2363 160 L 2362 161 L 2362 162 L 2361 163 L 2361 164 L 2360 165 L 2360 166 L 2359 167 L 2359 168 L 2358 169 L 2358 170 L 2355 173 L 2355 174 L 2353 176 L 2353 177 L 2347 183 L 2347 184 L 2346 185 L 2346 186 L 2345 187 L 2345 189 L 2344 190 L 2344 196 L 2345 197 L 2345 198 L 2346 199 L 2346 200 L 2348 202 L 2349 202 L 2351 204 L 2353 204 L 2354 205 L 2357 205 L 2358 204 L 2361 204 L 2363 202 L 2364 202 L 2365 201 L 2366 201 L 2367 200 L 2368 200 L 2373 195 L 2373 194 L 2376 191 L 2376 190 L 2377 189 L 2377 188 L 2378 187 L 2378 186 L 2379 185 L 2379 184 L 2380 183 L 2380 182 L 2382 180 L 2382 179 L 2383 178 L 2383 176 L 2384 175 L 2384 172 L 2385 171 L 2385 169 L 2386 168 L 2386 165 L 2387 164 L 2387 160 L 2388 159 L 2388 153 L 2389 152 L 2389 147 L 2390 146 L 2390 123 L 2389 122 L 2389 118 L 2388 117 L 2388 110 L 2387 109 L 2387 104 L 2386 103 L 2386 99 L 2385 98 L 2385 95 L 2384 94 L 2384 91 L 2383 90 L 2383 89 L 2382 88 Z M 2012 72 L 2013 71 L 2088 71 L 2089 72 L 2089 146 L 2088 147 L 2013 147 L 2012 146 Z M 1910 72 L 1911 71 L 1986 71 L 1987 72 L 1987 146 L 1986 147 L 1911 147 L 1910 146 Z M 2417 53 L 2417 236 L 2418 237 L 2418 239 L 2419 240 L 2419 242 L 2420 243 L 2420 244 L 2424 248 L 2425 248 L 2427 250 L 2429 250 L 2430 251 L 2431 251 L 2432 252 L 2434 252 L 2435 253 L 2440 253 L 2441 254 L 2527 254 L 2528 253 L 2542 253 L 2543 252 L 2549 252 L 2550 251 L 2551 251 L 2552 250 L 2556 250 L 2557 249 L 2559 249 L 2560 248 L 2561 248 L 2562 247 L 2563 247 L 2567 243 L 2567 242 L 2568 241 L 2568 234 L 2567 233 L 2567 232 L 2565 230 L 2564 230 L 2563 229 L 2562 229 L 2561 228 L 2559 228 L 2557 226 L 2557 178 L 2556 177 L 2553 177 L 2553 179 L 2552 180 L 2552 184 L 2551 185 L 2551 186 L 2550 187 L 2550 190 L 2549 191 L 2549 195 L 2548 196 L 2548 200 L 2547 201 L 2547 205 L 2546 206 L 2546 209 L 2545 210 L 2545 213 L 2544 214 L 2544 217 L 2543 218 L 2543 219 L 2542 220 L 2542 222 L 2541 223 L 2541 224 L 2540 225 L 2540 226 L 2537 229 L 2534 229 L 2533 230 L 2447 230 L 2446 229 L 2444 229 L 2441 226 L 2441 65 L 2442 64 L 2444 64 L 2445 63 L 2446 63 L 2447 62 L 2448 62 L 2449 61 L 2449 60 L 2450 59 L 2450 57 L 2449 56 L 2444 56 L 2443 55 L 2434 55 L 2433 54 L 2423 54 L 2422 53 Z M 619 15 L 618 16 L 619 17 L 618 18 L 618 107 L 617 108 L 563 108 L 563 110 L 564 111 L 564 114 L 565 115 L 565 117 L 617 117 L 618 118 L 618 240 L 617 241 L 545 241 L 545 245 L 547 247 L 547 249 L 714 249 L 716 247 L 717 247 L 717 246 L 718 245 L 710 237 L 709 237 L 701 229 L 700 229 L 693 222 L 690 222 L 690 223 L 689 224 L 689 225 L 687 227 L 687 228 L 682 233 L 682 234 L 680 236 L 680 237 L 676 241 L 643 241 L 642 240 L 642 118 L 643 117 L 703 117 L 704 116 L 705 116 L 705 115 L 707 113 L 706 112 L 706 111 L 700 105 L 699 105 L 693 99 L 692 99 L 685 92 L 684 92 L 682 90 L 681 91 L 680 91 L 680 92 L 678 94 L 678 95 L 674 99 L 674 100 L 671 103 L 671 104 L 669 106 L 669 107 L 668 108 L 643 108 L 642 107 L 642 27 L 643 26 L 646 26 L 648 24 L 649 24 L 651 22 L 651 21 L 652 20 L 652 18 L 644 18 L 643 17 L 638 17 L 637 16 L 636 16 L 635 17 L 634 16 L 631 16 L 630 15 Z M 1559 11 L 1557 13 L 1557 14 L 1559 16 L 1560 16 L 1563 19 L 1564 19 L 1566 21 L 1567 21 L 1573 27 L 1574 27 L 1580 33 L 1580 34 L 1581 34 L 1582 35 L 1582 36 L 1586 40 L 1586 41 L 1589 44 L 1589 45 L 1591 47 L 1591 48 L 1592 49 L 1592 50 L 1593 51 L 1593 52 L 1594 52 L 1595 53 L 1605 53 L 1606 52 L 1607 52 L 1609 50 L 1609 49 L 1610 48 L 1610 47 L 1611 46 L 1611 37 L 1610 36 L 1610 35 L 1609 34 L 1609 33 L 1608 32 L 1608 31 L 1606 29 L 1606 28 L 1605 28 L 1600 23 L 1599 23 L 1598 22 L 1597 22 L 1596 21 L 1595 21 L 1593 19 L 1591 19 L 1590 18 L 1588 18 L 1587 17 L 1586 17 L 1585 16 L 1584 16 L 1583 15 L 1581 15 L 1580 14 L 1576 14 L 1575 13 L 1571 13 L 1570 12 L 1563 12 L 1562 11 Z M 506 11 L 505 12 L 505 75 L 504 76 L 461 76 L 461 79 L 462 80 L 462 83 L 464 85 L 500 85 L 501 86 L 501 87 L 500 88 L 500 93 L 499 94 L 499 98 L 498 99 L 498 102 L 497 103 L 497 104 L 496 105 L 496 109 L 495 110 L 495 113 L 494 114 L 494 118 L 493 119 L 493 122 L 492 123 L 492 126 L 491 127 L 491 130 L 490 131 L 490 133 L 489 134 L 489 135 L 488 136 L 488 138 L 487 139 L 487 141 L 486 142 L 486 144 L 485 145 L 485 148 L 484 149 L 484 150 L 483 151 L 483 153 L 482 154 L 482 155 L 481 156 L 481 157 L 480 158 L 480 160 L 479 161 L 479 162 L 478 163 L 478 165 L 477 166 L 477 168 L 476 169 L 476 170 L 475 171 L 475 172 L 474 173 L 474 174 L 473 175 L 473 176 L 472 177 L 472 178 L 471 179 L 471 180 L 470 181 L 470 182 L 469 183 L 469 184 L 468 185 L 468 186 L 467 187 L 467 188 L 466 189 L 466 190 L 464 192 L 464 193 L 463 194 L 463 195 L 461 197 L 461 198 L 460 199 L 460 200 L 458 202 L 458 203 L 457 204 L 457 205 L 460 208 L 461 208 L 470 199 L 470 198 L 476 192 L 476 191 L 479 188 L 479 187 L 483 183 L 483 182 L 485 180 L 485 179 L 486 178 L 486 177 L 489 174 L 489 173 L 491 171 L 491 170 L 493 168 L 493 167 L 494 166 L 494 165 L 495 164 L 495 163 L 496 162 L 496 161 L 498 159 L 498 158 L 500 156 L 500 154 L 501 153 L 501 152 L 502 151 L 502 150 L 503 149 L 503 148 L 504 147 L 505 148 L 505 265 L 506 266 L 513 266 L 514 265 L 518 265 L 519 264 L 520 264 L 521 263 L 523 263 L 525 261 L 526 261 L 526 260 L 527 259 L 527 120 L 528 119 L 529 120 L 529 121 L 533 125 L 533 126 L 535 128 L 535 129 L 536 130 L 536 131 L 539 134 L 539 135 L 540 136 L 540 137 L 541 138 L 541 139 L 542 140 L 542 141 L 543 142 L 543 143 L 544 144 L 544 145 L 545 146 L 545 147 L 546 148 L 546 149 L 547 150 L 547 151 L 548 152 L 548 154 L 549 155 L 549 158 L 550 159 L 550 160 L 551 161 L 552 161 L 554 163 L 556 163 L 557 164 L 561 164 L 562 163 L 563 163 L 564 162 L 565 162 L 567 160 L 567 159 L 568 158 L 568 157 L 569 156 L 569 145 L 568 144 L 568 142 L 567 141 L 567 140 L 566 139 L 566 138 L 564 136 L 564 135 L 555 126 L 554 126 L 552 124 L 551 124 L 548 121 L 547 121 L 545 119 L 544 119 L 543 118 L 542 118 L 541 117 L 539 117 L 538 116 L 537 116 L 536 115 L 535 115 L 534 114 L 533 114 L 532 113 L 531 113 L 530 112 L 528 112 L 527 111 L 527 86 L 528 85 L 575 85 L 576 84 L 577 84 L 580 81 L 580 80 L 572 72 L 571 72 L 565 66 L 564 66 L 559 61 L 558 61 L 556 59 L 555 59 L 555 60 L 551 64 L 551 65 L 549 67 L 549 68 L 544 73 L 544 74 L 542 76 L 528 76 L 527 75 L 527 23 L 528 22 L 531 22 L 532 21 L 533 21 L 534 20 L 535 20 L 535 19 L 536 18 L 536 17 L 537 16 L 537 15 L 536 14 L 530 14 L 529 13 L 520 13 L 519 12 L 509 12 L 508 11 Z M 116 11 L 116 12 L 115 13 L 115 14 L 114 15 L 114 17 L 113 18 L 113 19 L 112 20 L 112 21 L 111 22 L 111 23 L 110 24 L 110 25 L 108 27 L 108 28 L 107 29 L 107 30 L 106 31 L 106 32 L 104 34 L 104 35 L 102 37 L 102 38 L 99 41 L 99 42 L 97 44 L 97 45 L 95 47 L 95 48 L 90 53 L 90 54 L 88 56 L 88 57 L 82 63 L 82 64 L 65 81 L 65 82 L 62 85 L 61 85 L 53 93 L 52 93 L 44 101 L 43 101 L 36 108 L 35 108 L 32 111 L 31 111 L 28 114 L 27 114 L 24 117 L 23 117 L 21 119 L 20 119 L 16 123 L 15 123 L 13 125 L 12 125 L 11 126 L 10 126 L 9 127 L 8 127 L 5 130 L 4 130 L 3 131 L 2 131 L 2 135 L 3 136 L 4 136 L 5 135 L 6 135 L 7 134 L 9 134 L 10 133 L 11 133 L 12 132 L 13 132 L 14 131 L 15 131 L 17 129 L 18 129 L 19 128 L 20 128 L 21 127 L 23 127 L 24 126 L 25 126 L 26 125 L 27 125 L 29 123 L 30 123 L 32 121 L 33 121 L 34 120 L 35 120 L 36 119 L 37 119 L 38 118 L 39 118 L 40 117 L 41 117 L 43 115 L 44 115 L 46 113 L 47 113 L 49 111 L 50 111 L 52 109 L 53 109 L 55 107 L 56 107 L 59 104 L 60 104 L 62 102 L 63 102 L 64 101 L 65 101 L 68 98 L 69 98 L 72 95 L 73 95 L 77 91 L 78 91 L 82 87 L 83 87 L 86 84 L 87 84 L 94 77 L 95 77 L 110 62 L 111 62 L 113 60 L 113 59 L 122 50 L 122 49 L 128 43 L 128 42 L 131 39 L 131 38 L 135 34 L 135 33 L 136 32 L 136 31 L 137 30 L 139 32 L 139 33 L 140 34 L 140 35 L 141 36 L 141 37 L 143 39 L 143 40 L 144 41 L 144 42 L 145 43 L 145 44 L 147 46 L 147 47 L 148 48 L 148 49 L 152 53 L 152 54 L 154 56 L 154 57 L 156 59 L 156 60 L 163 67 L 163 68 L 182 87 L 183 87 L 190 94 L 191 94 L 194 97 L 195 97 L 199 101 L 200 101 L 202 103 L 203 103 L 206 106 L 207 106 L 210 109 L 211 109 L 213 111 L 214 111 L 215 112 L 216 112 L 217 113 L 218 113 L 221 116 L 222 116 L 223 117 L 224 117 L 226 119 L 227 119 L 228 120 L 229 120 L 230 121 L 231 121 L 232 122 L 233 122 L 235 124 L 236 124 L 237 125 L 238 125 L 239 126 L 241 126 L 241 125 L 242 124 L 242 122 L 243 121 L 243 120 L 244 119 L 244 118 L 252 110 L 253 110 L 254 109 L 255 109 L 256 108 L 257 108 L 258 107 L 260 107 L 261 106 L 261 102 L 260 101 L 258 101 L 257 100 L 255 100 L 254 99 L 252 99 L 251 98 L 250 98 L 248 96 L 246 96 L 245 95 L 243 95 L 242 94 L 241 94 L 240 93 L 238 93 L 237 92 L 236 92 L 235 91 L 234 91 L 233 90 L 231 90 L 229 88 L 228 88 L 227 87 L 225 87 L 224 86 L 223 86 L 222 85 L 221 85 L 220 84 L 219 84 L 218 83 L 217 83 L 216 82 L 215 82 L 214 81 L 213 81 L 211 79 L 210 79 L 209 78 L 208 78 L 207 77 L 206 77 L 205 76 L 204 76 L 203 75 L 202 75 L 200 73 L 199 73 L 197 71 L 196 71 L 195 70 L 194 70 L 193 69 L 192 69 L 191 68 L 190 68 L 188 66 L 187 66 L 184 63 L 183 63 L 181 61 L 180 61 L 177 58 L 176 58 L 172 54 L 171 54 L 167 50 L 166 50 L 159 43 L 158 43 L 155 40 L 155 39 L 146 30 L 146 29 L 144 27 L 145 26 L 147 26 L 148 25 L 149 25 L 150 24 L 152 24 L 154 22 L 154 20 L 153 19 L 149 19 L 148 18 L 144 18 L 142 16 L 141 17 L 140 16 L 139 16 L 138 15 L 134 15 L 133 14 L 130 14 L 129 13 L 125 13 L 124 12 L 121 12 L 120 11 Z M 2457 4 L 2455 6 L 2455 7 L 2456 8 L 2456 9 L 2459 12 L 2459 13 L 2464 18 L 2464 19 L 2467 22 L 2467 23 L 2469 25 L 2469 26 L 2472 29 L 2472 30 L 2474 32 L 2474 33 L 2476 35 L 2476 36 L 2477 37 L 2477 38 L 2480 41 L 2480 42 L 2481 43 L 2481 44 L 2483 46 L 2483 47 L 2484 48 L 2484 49 L 2485 50 L 2485 51 L 2487 53 L 2487 54 L 2488 55 L 2488 56 L 2489 57 L 2489 58 L 2490 59 L 2490 60 L 2491 61 L 2491 63 L 2492 64 L 2492 65 L 2493 66 L 2493 67 L 2494 68 L 2494 70 L 2495 71 L 2495 72 L 2496 73 L 2496 75 L 2497 76 L 2497 78 L 2498 79 L 2498 82 L 2501 85 L 2502 85 L 2503 86 L 2505 86 L 2506 87 L 2512 87 L 2513 86 L 2515 86 L 2518 83 L 2518 82 L 2520 80 L 2520 78 L 2521 77 L 2521 65 L 2520 64 L 2520 61 L 2518 59 L 2518 57 L 2517 56 L 2517 55 L 2516 54 L 2516 53 L 2515 52 L 2515 51 L 2514 50 L 2514 49 L 2513 48 L 2513 47 L 2512 46 L 2512 45 L 2511 45 L 2510 44 L 2510 43 L 2507 40 L 2507 39 L 2496 28 L 2495 28 L 2489 22 L 2488 22 L 2486 20 L 2485 20 L 2483 18 L 2482 18 L 2479 15 L 2478 15 L 2477 14 L 2476 14 L 2474 12 L 2473 12 L 2472 11 L 2471 11 L 2470 10 L 2469 10 L 2468 9 L 2467 9 L 2465 7 L 2464 7 L 2463 6 L 2462 6 L 2461 5 L 2460 5 L 2459 4 Z M 993 3 L 993 43 L 992 44 L 918 44 L 918 45 L 919 46 L 919 49 L 920 50 L 920 53 L 992 53 L 993 54 L 993 94 L 1004 94 L 1005 93 L 1008 93 L 1009 92 L 1011 92 L 1012 91 L 1013 91 L 1014 90 L 1015 90 L 1016 89 L 1016 88 L 1017 87 L 1017 54 L 1018 53 L 1079 53 L 1080 54 L 1080 93 L 1090 93 L 1091 92 L 1095 92 L 1096 91 L 1098 91 L 1099 90 L 1100 90 L 1103 87 L 1103 54 L 1104 53 L 1177 53 L 1180 50 L 1180 48 L 1170 38 L 1169 38 L 1162 31 L 1161 31 L 1156 26 L 1155 26 L 1153 24 L 1150 27 L 1150 28 L 1148 30 L 1148 31 L 1146 33 L 1146 34 L 1141 39 L 1141 40 L 1139 42 L 1139 43 L 1138 44 L 1104 44 L 1103 43 L 1103 15 L 1104 14 L 1106 14 L 1107 13 L 1109 13 L 1110 12 L 1111 12 L 1111 11 L 1113 9 L 1113 8 L 1114 7 L 1113 6 L 1111 6 L 1110 5 L 1100 5 L 1099 4 L 1088 4 L 1087 3 L 1080 3 L 1080 43 L 1079 44 L 1018 44 L 1017 43 L 1017 21 L 1016 20 L 1017 19 L 1017 15 L 1018 14 L 1019 14 L 1020 13 L 1022 13 L 1026 9 L 1026 6 L 1024 6 L 1023 5 L 1013 5 L 1012 4 L 1002 4 L 1001 3 Z M 1987 2 L 1987 61 L 1986 62 L 1910 62 L 1909 61 L 1908 61 L 1907 60 L 1905 60 L 1904 59 L 1902 59 L 1901 58 L 1900 58 L 1898 56 L 1897 56 L 1896 55 L 1894 55 L 1893 54 L 1892 54 L 1891 53 L 1889 53 L 1888 52 L 1885 52 L 1885 183 L 1897 183 L 1898 182 L 1901 182 L 1902 181 L 1903 181 L 1904 180 L 1905 180 L 1906 179 L 1907 179 L 1910 176 L 1910 157 L 1911 156 L 1986 156 L 1987 157 L 1987 266 L 1988 267 L 1994 267 L 1995 266 L 1999 266 L 2000 265 L 2003 265 L 2004 264 L 2005 264 L 2006 263 L 2007 263 L 2009 261 L 2010 261 L 2011 260 L 2011 259 L 2012 258 L 2012 157 L 2013 156 L 2088 156 L 2089 157 L 2089 179 L 2090 180 L 2099 180 L 2100 179 L 2103 179 L 2105 177 L 2108 177 L 2109 176 L 2110 176 L 2111 175 L 2112 175 L 2114 173 L 2114 77 L 2116 75 L 2119 75 L 2121 73 L 2122 73 L 2123 72 L 2124 72 L 2126 70 L 2126 69 L 2125 69 L 2123 67 L 2122 67 L 2117 62 L 2116 62 L 2114 60 L 2113 60 L 2109 56 L 2108 56 L 2105 53 L 2104 53 L 2101 50 L 2100 50 L 2099 49 L 2093 55 L 2093 56 L 2090 59 L 2089 59 L 2089 60 L 2087 62 L 2013 62 L 2012 61 L 2012 14 L 2013 13 L 2016 13 L 2017 12 L 2018 12 L 2021 9 L 2021 8 L 2022 7 L 2022 5 L 2016 5 L 2015 4 L 2006 4 L 2005 3 L 1997 3 L 1996 2 Z M 1510 2 L 1510 71 L 1509 72 L 1394 72 L 1393 73 L 1394 74 L 1394 76 L 1396 78 L 1396 81 L 1495 81 L 1496 82 L 1495 83 L 1495 85 L 1494 86 L 1494 89 L 1493 90 L 1493 92 L 1491 94 L 1491 96 L 1490 97 L 1490 99 L 1489 100 L 1489 102 L 1488 103 L 1488 105 L 1487 106 L 1487 108 L 1486 109 L 1486 111 L 1485 112 L 1485 113 L 1484 114 L 1484 115 L 1483 116 L 1483 117 L 1482 118 L 1482 119 L 1481 120 L 1481 122 L 1480 123 L 1480 124 L 1479 125 L 1479 127 L 1478 128 L 1478 129 L 1477 130 L 1477 131 L 1475 133 L 1475 134 L 1474 135 L 1474 136 L 1473 137 L 1473 138 L 1472 139 L 1472 141 L 1471 142 L 1471 143 L 1470 144 L 1470 145 L 1469 146 L 1469 147 L 1466 150 L 1466 151 L 1465 152 L 1465 153 L 1464 154 L 1464 155 L 1463 156 L 1463 157 L 1462 158 L 1462 159 L 1460 161 L 1460 162 L 1458 164 L 1458 165 L 1456 167 L 1456 168 L 1455 169 L 1455 170 L 1454 171 L 1454 172 L 1450 176 L 1450 177 L 1448 179 L 1448 180 L 1447 181 L 1447 182 L 1444 185 L 1444 186 L 1440 190 L 1440 191 L 1438 193 L 1438 194 L 1432 200 L 1432 201 L 1430 203 L 1430 204 L 1422 212 L 1422 213 L 1419 216 L 1418 216 L 1417 217 L 1417 218 L 1410 225 L 1409 225 L 1409 226 L 1405 230 L 1404 230 L 1396 238 L 1395 238 L 1391 242 L 1390 242 L 1387 245 L 1387 246 L 1390 249 L 1391 249 L 1392 248 L 1393 248 L 1395 246 L 1396 246 L 1397 245 L 1398 245 L 1401 242 L 1402 242 L 1403 241 L 1404 241 L 1405 240 L 1406 240 L 1408 238 L 1409 238 L 1411 236 L 1412 236 L 1416 232 L 1417 232 L 1419 230 L 1420 230 L 1424 226 L 1425 226 L 1428 223 L 1429 223 L 1435 217 L 1436 217 L 1440 213 L 1441 213 L 1441 212 L 1443 210 L 1444 210 L 1459 195 L 1459 194 L 1460 193 L 1461 193 L 1463 191 L 1463 190 L 1470 183 L 1470 182 L 1472 180 L 1472 179 L 1478 173 L 1478 172 L 1480 170 L 1480 169 L 1482 167 L 1482 166 L 1485 163 L 1485 162 L 1488 159 L 1488 158 L 1489 157 L 1489 156 L 1491 154 L 1491 153 L 1493 151 L 1493 150 L 1495 148 L 1495 147 L 1496 146 L 1496 145 L 1497 144 L 1497 143 L 1498 142 L 1498 141 L 1501 138 L 1501 137 L 1502 136 L 1502 135 L 1503 134 L 1503 133 L 1504 132 L 1504 131 L 1505 130 L 1505 129 L 1506 128 L 1506 127 L 1507 126 L 1507 125 L 1508 124 L 1508 123 L 1509 122 L 1510 123 L 1510 266 L 1511 267 L 1512 267 L 1513 266 L 1514 267 L 1515 266 L 1522 266 L 1523 265 L 1525 265 L 1526 264 L 1527 264 L 1528 263 L 1529 263 L 1530 262 L 1531 262 L 1534 259 L 1534 85 L 1535 84 L 1536 85 L 1536 89 L 1537 90 L 1537 94 L 1538 95 L 1538 99 L 1539 100 L 1539 103 L 1540 104 L 1540 105 L 1541 106 L 1541 108 L 1542 109 L 1542 112 L 1543 113 L 1543 116 L 1544 117 L 1544 119 L 1545 120 L 1545 123 L 1546 124 L 1546 126 L 1547 127 L 1547 129 L 1548 130 L 1548 131 L 1549 132 L 1549 133 L 1550 134 L 1550 136 L 1551 137 L 1551 138 L 1552 139 L 1552 141 L 1553 142 L 1553 144 L 1554 145 L 1554 146 L 1555 147 L 1555 149 L 1557 151 L 1557 152 L 1558 153 L 1558 154 L 1559 155 L 1559 156 L 1560 157 L 1560 158 L 1561 159 L 1561 161 L 1562 162 L 1562 163 L 1563 164 L 1563 165 L 1565 167 L 1565 168 L 1566 169 L 1566 170 L 1568 172 L 1568 173 L 1569 174 L 1569 175 L 1570 176 L 1570 177 L 1571 178 L 1571 179 L 1574 182 L 1574 183 L 1576 185 L 1576 186 L 1578 188 L 1578 189 L 1579 190 L 1579 191 L 1583 195 L 1583 196 L 1586 199 L 1586 200 L 1591 205 L 1591 206 L 1596 211 L 1596 212 L 1597 212 L 1599 214 L 1599 215 L 1600 215 L 1601 216 L 1601 217 L 1605 221 L 1606 221 L 1615 230 L 1616 230 L 1620 234 L 1621 234 L 1626 239 L 1627 239 L 1629 241 L 1630 241 L 1631 242 L 1632 242 L 1634 244 L 1635 244 L 1636 243 L 1636 242 L 1639 239 L 1639 238 L 1641 236 L 1641 235 L 1644 232 L 1645 232 L 1646 231 L 1647 231 L 1649 229 L 1651 229 L 1652 228 L 1653 228 L 1654 227 L 1656 227 L 1657 226 L 1659 226 L 1660 225 L 1660 222 L 1658 222 L 1657 221 L 1656 221 L 1655 220 L 1654 220 L 1653 219 L 1652 219 L 1650 217 L 1649 217 L 1648 216 L 1647 216 L 1646 215 L 1645 215 L 1643 213 L 1642 213 L 1641 212 L 1640 212 L 1638 210 L 1637 210 L 1635 208 L 1634 208 L 1632 206 L 1631 206 L 1630 205 L 1629 205 L 1626 202 L 1625 202 L 1622 199 L 1621 199 L 1617 195 L 1616 195 L 1612 191 L 1611 191 L 1585 165 L 1585 164 L 1582 161 L 1582 160 L 1577 155 L 1577 154 L 1575 152 L 1575 151 L 1572 148 L 1572 147 L 1570 145 L 1570 144 L 1568 142 L 1568 141 L 1567 140 L 1567 139 L 1565 137 L 1565 136 L 1563 134 L 1563 133 L 1562 132 L 1562 131 L 1561 130 L 1561 129 L 1560 128 L 1560 127 L 1559 126 L 1559 125 L 1558 124 L 1558 123 L 1556 121 L 1556 120 L 1555 119 L 1555 118 L 1554 117 L 1554 115 L 1553 114 L 1553 113 L 1552 112 L 1552 111 L 1551 110 L 1551 108 L 1550 107 L 1550 105 L 1548 103 L 1548 102 L 1547 101 L 1547 99 L 1546 98 L 1546 96 L 1545 95 L 1545 93 L 1544 92 L 1544 89 L 1543 88 L 1543 85 L 1542 84 L 1542 82 L 1543 81 L 1651 81 L 1652 80 L 1655 80 L 1657 78 L 1657 75 L 1656 75 L 1655 74 L 1655 73 L 1654 73 L 1647 66 L 1646 66 L 1641 61 L 1640 61 L 1638 59 L 1637 59 L 1631 53 L 1630 53 L 1628 51 L 1627 51 L 1626 52 L 1626 53 L 1624 55 L 1624 56 L 1619 61 L 1619 62 L 1617 64 L 1617 65 L 1614 68 L 1614 69 L 1611 72 L 1535 72 L 1534 71 L 1534 14 L 1535 13 L 1538 13 L 1539 12 L 1540 12 L 1541 11 L 1542 11 L 1542 10 L 1544 8 L 1544 5 L 1540 5 L 1539 4 L 1530 4 L 1529 3 L 1521 3 L 1520 2 Z"/>
</svg>
